<?xml version="1.0" standalone="no"?>
<!DOCTYPE svg PUBLIC "-//W3C//DTD SVG 20010904//EN"
 "http://www.w3.org/TR/2001/REC-SVG-20010904/DTD/svg10.dtd">
<svg version="1.0" xmlns="http://www.w3.org/2000/svg"
 width="260.000000pt" height="260.000000pt" viewBox="0 0 260.000000 260.000000"
 preserveAspectRatio="xMidYMid meet">
<metadata>
Created by potrace 1.11, written by Peter Selinger 2001-2013
</metadata>
<g transform="translate(0.000000,260.000000) scale(0.100000,-0.100000)"
fill="#000000" stroke="none">
<path d="M548 2590 c-136 -24 -255 -85 -354 -184 -80 -80 -132 -166 -166 -276
l-23 -75 0 -755 0 -755 23 -75 c34 -110 86 -196 166 -276 80 -80 166 -132 276
-166 l75 -23 755 0 755 0 75 23 c110 34 196 86 276 166 80 80 132 166 166 276
l23 75 0 755 0 755 -23 75 c-34 110 -86 196 -166 276 -78 77 -163 130 -271
165 l-70 24 -735 1 c-404 1 -756 -2 -782 -6z m568 -296 c144 -59 207 -207 148
-345 l-16 -36 -107 -7 c-60 -3 -141 -15 -182 -26 -95 -25 -111 -25 -136 3 -42
45 -57 89 -57 167 -1 64 3 82 26 120 33 57 65 86 125 116 58 28 142 32 199 8z
m717 -274 c-69 -196 -71 -377 -7 -501 17 -35 64 -96 64 -84 0 3 -6 27 -14 53
-18 58 -26 136 -16 152 6 9 20 3 51 -21 63 -47 113 -112 160 -207 23 -45 51
-89 62 -97 13 -9 45 -15 82 -15 48 0 66 -4 83 -20 21 -20 22 -29 22 -174 0
-195 -2 -199 -114 -204 -86 -5 -81 -1 -157 -119 -47 -74 -94 -121 -172 -175
-32 -22 -61 -46 -63 -53 -3 -8 4 -41 16 -74 36 -98 17 -122 -137 -176 -29 -11
-53 -23 -53 -27 0 -4 -13 -8 -30 -8 -16 0 -30 5 -30 10 0 6 -6 10 -14 10 -17
0 -37 30 -59 90 -30 79 -16 74 -213 71 -112 -2 -200 2 -240 10 -77 15 -83 11
-114 -72 -34 -91 -99 -144 -135 -110 -6 4 -44 21 -85 36 -86 32 -96 39 -115
76 -13 24 -12 34 6 86 12 32 23 76 26 98 4 39 2 42 -89 135 -96 98 -144 173
-168 261 -14 54 -9 211 10 309 l13 65 -56 79 c-42 57 -57 87 -57 111 0 18 -6
35 -12 38 -10 4 -10 7 0 18 6 7 12 24 13 38 1 37 30 82 70 109 59 41 144 17
181 -51 8 -17 6 -17 -29 -11 -87 18 -123 -3 -123 -71 0 -32 6 -47 28 -68 40
-38 63 -34 113 19 72 76 92 94 135 124 119 83 306 143 479 154 79 5 219 -3
326 -20 34 -6 37 -3 68 44 40 63 125 143 181 172 61 31 114 49 122 41 4 -3 0
-26 -9 -51z"/>
<path d="M1845 1283 c-45 -23 -65 -53 -65 -100 0 -102 125 -150 195 -75 19 20
25 38 25 72 0 54 -20 87 -66 106 -42 17 -52 17 -89 -3z"/>
</g>
</svg>
